<?xml version="1.0" standalone="no"?>
<!DOCTYPE svg PUBLIC "-//W3C//DTD SVG 20010904//EN"
 "http://www.w3.org/TR/2001/REC-SVG-20010904/DTD/svg10.dtd">
<svg version="1.0" xmlns="http://www.w3.org/2000/svg"
 width="4405.000000pt" height="4405.000000pt" viewBox="0 0 4405.000000 4405.000000"
 preserveAspectRatio="xMidYMid meet">
<metadata>
Created by potrace 1.14, written by Peter Selinger 2001-2017
</metadata>
<g transform="translate(0.000000,4405.000000) scale(0.100000,-0.100000)"
fill="#000000" stroke="none">
<path d="M22340 39533 c-39 -119 -109 -284 -184 -433 -97 -193 -103 -202 -262
-458 -25 -41 -44 -75 -42 -77 2 -2 46 14 98 36 52 22 112 47 133 54 l39 15
-22 -38 c-80 -135 -399 -534 -524 -653 -20 -19 -20 -19 1 -19 18 0 285 89 386
129 26 10 27 10 16 -12 -13 -24 -137 -180 -191 -238 -18 -20 -68 -76 -111
-123 -104 -113 -204 -214 -302 -303 l-80 -73 55 5 c64 5 206 29 320 53 133 29
190 39 190 32 0 -8 -128 -132 -215 -207 -137 -118 -300 -241 -458 -346 l-167
-112 57 -5 c106 -9 448 -1 608 15 22 2 69 7 105 10 111 10 169 18 230 29 25 5
52 9 141 21 l47 6 0 -208 c0 -114 1 -217 1 -228 1 -19 7 -20 149 -19 81 1 152
2 158 3 8 1 11 70 10 225 l-1 225 45 -5 c52 -5 105 -12 140 -19 14 -3 45 -7
70 -10 25 -3 56 -8 70 -10 23 -4 106 -13 200 -21 193 -16 557 -25 629 -14 34
5 32 7 -105 97 -205 135 -523 385 -651 513 -55 54 -66 75 -35 66 9 -3 40 -10
67 -16 28 -5 59 -11 70 -14 97 -21 292 -55 345 -61 l65 -6 -45 41 c-174 161
-321 315 -514 544 -22 26 -45 53 -51 60 -87 98 -93 121 -28 95 74 -30 367
-128 371 -124 2 2 -11 19 -30 38 -18 18 -44 47 -58 63 -42 48 -144 170 -160
190 -8 11 -49 62 -90 114 -82 103 -145 189 -173 233 -9 15 -24 38 -33 52 l-16
25 38 -14 c22 -8 82 -32 134 -54 52 -23 97 -39 99 -37 2 3 -16 36 -40 75 -123
197 -170 280 -254 445 -80 158 -167 360 -205 478 -6 20 -13 37 -15 37 -2 0
-13 -30 -25 -67z"/>
<path d="M19050 38615 c-85 -19 -166 -36 -180 -39 -14 -2 -83 -16 -155 -31
-71 -14 -141 -28 -155 -30 -32 -6 -132 -26 -146 -30 -8 -3 -7 -27 5 -87 15
-76 19 -83 41 -86 115 -12 128 -33 174 -282 2 -14 11 -59 20 -100 8 -41 18
-88 21 -105 3 -16 11 -58 18 -92 l13 -61 -35 -7 c-20 -4 -47 -9 -61 -12 -14
-2 -88 -17 -165 -33 -77 -16 -151 -31 -165 -34 -14 -2 -36 -7 -50 -10 -14 -3
-37 -8 -53 -10 -15 -3 -35 -7 -45 -10 -9 -3 -34 -7 -56 -11 -21 -3 -41 -7 -45
-9 -3 -2 -23 -7 -43 -10 -21 -3 -57 -10 -80 -16 -24 -5 -46 -10 -49 -10 -11 0
-17 22 -45 158 -14 70 -27 134 -29 143 -2 9 -6 32 -9 50 -3 19 -12 65 -21 103
-31 135 -23 173 45 215 47 29 48 32 40 61 -5 17 -9 33 -9 35 0 36 -16 95 -25
95 -7 0 -113 -21 -237 -46 -123 -25 -235 -47 -249 -50 -14 -3 -81 -16 -150
-30 -69 -14 -136 -28 -150 -30 -80 -13 -78 -8 -54 -113 15 -65 18 -71 41 -71
60 0 101 -21 122 -64 17 -32 85 -338 115 -511 3 -16 15 -75 26 -130 12 -55 24
-111 26 -125 3 -14 37 -182 76 -375 137 -680 133 -628 49 -684 -48 -33 -52
-38 -46 -66 3 -16 8 -41 11 -55 12 -67 16 -79 27 -75 7 2 29 7 51 10 21 3 41
7 45 9 3 2 26 7 51 11 25 3 194 36 375 73 376 77 338 56 313 177 -13 59 -13
59 -52 63 -55 5 -83 17 -101 45 -12 19 -131 572 -171 790 -2 16 -6 34 -7 40
-1 7 148 42 408 94 226 46 419 85 429 86 17 2 23 -14 47 -133 15 -74 30 -148
33 -165 3 -16 28 -138 54 -269 26 -132 46 -252 44 -267 -5 -34 -46 -78 -84
-91 -16 -6 -26 -13 -24 -16 2 -4 7 -25 10 -47 14 -87 19 -107 31 -111 6 -3 90
11 186 30 185 37 209 42 249 50 14 3 106 22 205 41 99 20 187 38 196 41 15 4
14 11 -1 86 l-17 82 -54 11 c-30 6 -60 14 -68 19 -24 15 -40 71 -85 298 -50
249 -53 263 -60 298 -9 41 -15 73 -21 105 -3 17 -7 41 -10 55 -3 14 -8 36 -11
50 -2 14 -11 57 -20 95 -8 39 -17 81 -19 95 -3 14 -16 81 -30 150 -13 69 -27
136 -29 150 -11 58 -66 329 -77 376 -11 49 -13 71 -10 121 1 27 39 69 74 82
31 12 32 25 14 116 -12 56 -14 60 -42 62 -17 1 -100 -14 -185 -32z"/>
<path d="M26019 38356 c-2 -2 -24 -6 -49 -10 -120 -16 -217 -47 -317 -102
-158 -87 -297 -269 -332 -432 -31 -147 6 -351 82 -450 51 -65 138 -142 236
-206 62 -41 319 -176 335 -176 6 0 167 -75 302 -141 171 -84 241 -133 275
-194 80 -142 25 -287 -136 -362 -57 -26 -67 -27 -205 -27 -125 1 -159 4 -245
28 -250 68 -405 192 -405 325 0 51 38 136 79 175 l30 29 -46 66 c-26 36 -54
76 -63 87 l-16 21 -44 -21 c-25 -12 -103 -48 -175 -80 -71 -33 -168 -77 -215
-98 -47 -22 -95 -44 -107 -49 -13 -5 -23 -14 -23 -20 0 -20 126 -255 170 -316
90 -127 218 -237 356 -306 122 -61 344 -130 489 -152 22 -4 58 -11 80 -16 70
-17 381 -19 468 -3 96 17 236 69 312 115 61 37 152 120 202 184 109 142 157
360 119 541 -41 200 -156 326 -454 498 -35 20 -65 36 -67 36 -2 0 -70 32 -152
71 -81 39 -179 86 -218 104 -331 152 -396 210 -379 339 10 83 54 137 152 187
42 21 59 24 157 22 237 -3 446 -101 506 -238 23 -52 24 -142 3 -210 l-12 -40
71 -67 c39 -38 76 -68 81 -68 11 0 250 152 254 163 2 4 8 7 12 7 11 0 177 107
184 119 16 26 -266 329 -384 412 -144 101 -323 179 -515 223 -10 3 -54 11
-110 22 -36 6 -281 15 -286 10z"/>
<path d="M15449 37796 c-2 -2 -29 -6 -59 -9 -252 -28 -517 -134 -725 -292
-249 -188 -407 -443 -459 -740 -32 -184 3 -483 74 -640 5 -11 21 -49 35 -83
107 -263 366 -510 630 -604 181 -64 234 -73 445 -73 163 0 218 6 340 35 510
123 880 445 1004 872 33 113 41 178 40 324 -2 316 -136 655 -344 865 -168 171
-428 302 -660 334 -49 7 -316 16 -321 11z m153 -406 c127 -38 263 -150 358
-292 70 -107 154 -299 174 -403 4 -16 9 -41 12 -55 14 -71 19 -126 18 -235 0
-66 -3 -133 -7 -150 -4 -16 -9 -39 -11 -50 -8 -40 -56 -149 -87 -197 -70 -109
-211 -205 -359 -245 -101 -27 -258 -24 -340 6 -186 68 -350 241 -456 481 -35
81 -51 132 -91 295 -12 52 -12 303 1 360 33 147 104 278 193 354 80 68 229
131 348 147 28 3 51 7 52 8 10 9 140 -8 195 -24z"/>
<path d="M28587 37634 l-26 -77 49 -46 c35 -33 50 -55 50 -73 0 -35 -19 -92
-276 -823 -42 -121 -83 -240 -91 -265 -8 -25 -23 -67 -34 -95 -10 -27 -50
-142 -89 -255 -72 -208 -94 -263 -118 -282 -7 -7 -42 -14 -78 -17 l-65 -6 -25
-74 c-14 -41 -21 -77 -17 -81 4 -4 134 -51 288 -104 154 -54 338 -118 408
-143 85 -30 132 -42 138 -36 6 6 21 41 34 79 l24 69 -22 19 c-12 10 -32 27
-45 37 -13 10 -26 33 -29 52 -6 38 4 68 332 1002 36 105 68 195 69 200 2 6 6
17 9 25 3 8 27 76 52 150 25 74 54 158 65 185 10 28 24 66 31 85 24 73 66 103
136 99 l46 -3 29 78 c15 44 27 81 24 83 -4 5 -148 57 -326 118 -69 24 -210 73
-314 109 -103 36 -192 66 -196 66 -4 0 -19 -34 -33 -76z"/>
<path d="M30434 36973 l-36 -77 36 -33 c31 -28 48 -61 51 -98 2 -24 -22 -81
-146 -343 -27 -57 -49 -105 -49 -107 0 -1 -24 -54 -54 -116 -29 -63 -76 -163
-104 -224 -27 -60 -75 -163 -106 -229 -31 -65 -56 -119 -56 -121 0 -1 -22 -49
-49 -106 -27 -57 -74 -160 -105 -229 -70 -155 -104 -191 -168 -184 -24 2 -49
7 -56 9 -12 4 -82 -121 -82 -148 0 -8 17 -21 38 -30 34 -14 109 -49 292 -135
36 -16 153 -70 260 -120 107 -49 224 -103 260 -120 36 -17 106 -49 155 -72
178 -82 318 -130 425 -145 25 -4 64 -10 87 -14 68 -13 232 -3 316 18 170 44
300 148 376 301 23 47 43 92 45 100 1 8 5 24 9 36 14 40 15 162 2 216 -29 126
-119 266 -244 379 l-71 64 113 1 c249 1 418 107 502 314 45 112 49 208 15 309
-37 112 -108 201 -235 296 -132 100 -224 148 -760 395 -176 81 -356 164 -400
185 -44 21 -113 53 -152 71 l-72 33 -37 -76z m745 -603 c95 -44 192 -93 214
-109 101 -70 150 -150 150 -245 -1 -168 -126 -272 -317 -261 -75 4 -94 9 -148
33 -24 10 -72 32 -108 48 -36 16 -98 45 -137 64 l-73 35 56 120 c31 66 65 140
76 165 48 106 108 230 111 230 2 0 81 -36 176 -80z m-349 -820 c221 -102 309
-161 362 -241 76 -115 82 -227 18 -363 -40 -87 -87 -137 -166 -177 -63 -32
-74 -34 -163 -34 -109 0 -161 12 -281 68 -47 21 -112 51 -145 67 -33 15 -82
37 -108 49 -26 12 -46 25 -44 29 3 4 16 32 30 62 59 131 148 322 189 410 25
52 57 123 73 158 15 34 30 62 34 62 3 0 93 -41 201 -90z"/>
<path d="M13150 36928 c-182 -89 -431 -208 -550 -265 -63 -30 -116 -56 -118
-58 -2 -2 12 -37 32 -79 l35 -76 60 4 c56 4 63 2 88 -23 16 -15 41 -55 57 -88
l28 -60 -97 -334 c-53 -184 -105 -363 -115 -399 -41 -150 -143 -496 -149 -508
-4 -8 -24 24 -51 80 -41 87 -123 258 -300 623 -165 342 -165 341 -100 404 l41
40 -37 73 c-20 40 -37 74 -39 76 -1 1 -74 -32 -161 -74 -87 -42 -217 -104
-289 -139 -71 -34 -178 -86 -237 -114 l-107 -51 34 -76 c19 -42 35 -78 35 -80
0 -1 10 0 23 3 55 14 107 7 133 -18 15 -13 60 -93 100 -176 41 -84 108 -224
150 -310 42 -87 103 -214 136 -283 33 -69 94 -195 135 -280 152 -311 226 -466
244 -508 31 -72 23 -112 -32 -163 -16 -14 -29 -29 -29 -33 0 -4 16 -40 35 -81
l35 -73 143 70 c78 39 183 90 232 113 198 94 410 197 414 201 2 2 -11 37 -30
79 l-34 74 -62 -4 c-79 -5 -94 9 -156 136 l-46 94 65 225 c145 499 178 614
235 815 33 115 62 211 63 213 4 3 13 -17 154 -308 41 -85 106 -220 144 -300
229 -475 225 -464 220 -502 -2 -15 -20 -44 -41 -66 l-38 -39 35 -74 c19 -41
35 -75 37 -77 3 -3 107 46 445 210 118 57 243 117 278 133 34 16 62 32 62 37
0 5 -15 40 -32 79 l-33 70 -59 -4 c-94 -6 -90 -11 -281 388 -34 72 -95 198
-135 280 -40 83 -98 204 -130 270 -64 133 -166 345 -258 536 -34 70 -64 140
-67 157 -7 40 9 80 46 113 l30 26 -36 77 c-19 42 -38 76 -42 75 -5 0 -55 -23
-113 -51z"/>
<path d="M10360 35460 c-96 -66 -220 -150 -275 -187 -55 -37 -102 -69 -105
-73 -3 -3 -25 -18 -50 -34 -25 -16 -60 -39 -77 -53 l-33 -24 48 -70 c38 -57
51 -69 67 -64 11 4 41 9 66 12 42 5 49 3 80 -29 19 -19 82 -106 141 -194 59
-87 153 -226 209 -309 56 -82 149 -220 207 -305 390 -574 395 -581 381 -595
-8 -7 -104 -73 -214 -147 -110 -74 -264 -178 -343 -232 -78 -54 -147 -96 -152
-94 -5 2 -72 95 -148 208 -132 197 -274 406 -427 630 -323 473 -375 555 -380
595 -3 20 25 78 46 96 20 17 20 18 -27 88 -43 65 -67 84 -76 63 -1 -4 -37 -30
-78 -58 -83 -55 -370 -250 -527 -357 l-102 -69 47 -70 c41 -63 49 -69 71 -63
107 27 135 15 209 -93 71 -101 221 -324 450 -662 102 -151 189 -276 194 -278
4 -2 8 -8 8 -13 0 -4 59 -95 131 -200 156 -227 167 -251 145 -300 -8 -19 -25
-46 -36 -60 l-22 -26 48 -71 48 -70 165 112 c531 361 545 371 1097 744 140 96
276 183 302 194 59 27 159 30 233 7 92 -27 159 -69 241 -150 l76 -76 61 39 61
40 -197 292 c-283 419 -274 406 -287 399 -6 -4 -32 -21 -57 -39 l-47 -33 -146
217 c-162 239 -270 399 -286 422 -6 8 -70 103 -143 210 -73 107 -180 266 -239
352 -59 87 -114 171 -123 187 -26 52 -18 98 28 148 l20 23 -48 70 c-27 38 -51
70 -54 69 -3 0 -85 -54 -181 -119z"/>
<path d="M33379 35477 l-45 -72 33 -43 c36 -48 41 -78 18 -122 -8 -15 -66
-106 -128 -202 -62 -95 -140 -213 -172 -263 -32 -49 -99 -153 -150 -230 -51
-77 -121 -185 -157 -240 -36 -55 -117 -179 -180 -275 -62 -96 -124 -192 -137
-212 -12 -21 -36 -47 -53 -60 -29 -20 -35 -21 -90 -9 -33 7 -61 11 -62 9 -42
-63 -77 -119 -81 -130 -2 -8 15 -25 43 -43 48 -30 225 -145 477 -310 77 -50
178 -116 225 -147 47 -30 150 -98 230 -150 80 -52 192 -125 250 -163 58 -38
161 -105 230 -150 69 -45 154 -100 189 -123 l65 -42 20 33 c11 17 56 88 101
157 45 69 102 157 128 197 47 72 55 93 38 93 -5 0 -35 17 -67 39 -57 39 -57
39 -78 19 -38 -36 -101 -67 -141 -71 -53 -5 -114 19 -220 84 -48 30 -94 59
-103 64 -10 6 -102 67 -207 135 -104 69 -231 152 -282 184 l-92 59 19 36 c11
20 66 106 122 191 57 85 145 219 196 298 50 78 95 142 97 142 3 0 56 -33 118
-74 62 -40 184 -120 272 -178 161 -105 219 -157 231 -204 7 -26 1 -87 -11
-116 -10 -25 131 -117 149 -97 7 8 48 68 90 134 42 66 115 178 161 249 l85
128 -73 47 -72 47 -44 -28 c-48 -30 -93 -35 -138 -16 -53 23 -593 373 -593
385 0 3 10 20 23 37 13 17 74 110 137 206 62 96 114 176 115 178 3 3 95 -56
325 -206 80 -52 190 -125 245 -161 185 -121 244 -201 224 -303 -4 -24 -8 -49
-9 -55 0 -18 139 -109 149 -97 4 5 53 79 108 164 55 85 117 180 137 210 44 66
68 40 -195 210 -106 69 -275 179 -376 245 -101 66 -243 159 -315 206 -73 48
-205 134 -293 191 -225 147 -418 273 -430 280 -6 4 -31 -26 -56 -65z"/>
<path d="M35980 33629 l-53 -60 28 -54 c35 -71 30 -90 -50 -179 -11 -12 -45
-51 -75 -86 -74 -85 -214 -244 -220 -250 -3 -3 -39 -43 -80 -90 -40 -47 -76
-87 -79 -90 -3 -3 -33 -36 -66 -75 -32 -38 -66 -77 -75 -86 -8 -9 -42 -47 -75
-85 -33 -38 -98 -112 -145 -165 -47 -53 -114 -129 -149 -170 -36 -41 -89 -98
-119 -128 -53 -53 -55 -53 -100 -47 -25 3 -51 11 -56 16 -21 21 -45 8 -95 -52
l-53 -62 34 -30 c18 -16 49 -43 68 -60 19 -17 89 -78 155 -136 66 -58 122
-107 125 -110 4 -4 93 -82 189 -166 18 -16 44 -39 58 -51 13 -13 28 -23 32
-23 8 0 103 105 109 121 2 5 -5 21 -17 37 -25 36 -35 75 -27 107 4 14 37 60
74 103 37 42 78 90 92 106 14 16 30 34 36 40 12 14 170 192 198 225 12 13 35
40 53 60 l32 35 23 -20 c128 -116 128 -116 122 -148 -2 -17 -11 -67 -19 -111
-8 -44 -17 -93 -20 -110 -13 -78 -76 -443 -80 -470 -3 -16 -12 -66 -20 -110
-8 -44 -17 -96 -20 -115 -3 -19 -10 -60 -15 -90 -5 -30 -11 -67 -14 -82 -4
-23 8 -37 94 -112 54 -47 105 -92 112 -99 7 -6 49 -44 93 -82 44 -39 82 -72
85 -75 34 -36 118 -97 126 -92 5 4 31 33 57 64 l48 57 -18 33 c-25 48 -24 196
3 332 2 12 6 37 9 56 3 19 7 46 10 60 2 14 6 41 9 60 2 19 11 76 20 125 8 50
18 110 21 135 3 25 8 52 10 60 2 8 6 35 9 60 3 25 8 54 10 65 2 11 7 39 11 62
l6 41 69 -23 c236 -80 445 -69 595 31 123 81 226 232 261 379 17 75 15 216 -5
268 -6 15 -8 27 -6 27 8 0 -49 125 -80 175 -67 106 -192 238 -390 411 -49 43
-95 83 -101 89 -22 20 -81 72 -164 145 -47 41 -98 86 -115 101 -16 14 -55 48
-85 74 -30 27 -86 76 -125 110 -171 152 -210 185 -216 185 -3 0 -30 -27 -59
-61z m656 -875 c101 -96 166 -212 170 -301 4 -79 -31 -154 -108 -232 -64 -65
-124 -94 -200 -97 -137 -6 -258 63 -501 287 l-58 54 28 31 c15 17 55 62 88 99
33 38 110 126 171 195 61 69 121 137 133 152 l24 27 111 -93 c61 -51 125 -106
142 -122z"/>
<path d="M7318 33153 c-40 -37 -78 -72 -84 -78 -6 -5 -51 -46 -99 -90 -49 -44
-108 -98 -132 -121 l-44 -40 66 -170 c37 -93 98 -250 136 -349 39 -99 74 -189
79 -200 5 -11 69 -171 141 -355 72 -184 156 -398 186 -475 111 -283 142 -361
163 -418 25 -65 28 -139 6 -190 l-14 -34 60 -62 61 -63 46 44 c41 39 215 199
326 299 22 20 62 57 90 83 l50 46 -55 57 c-30 32 -56 59 -57 62 -2 2 -28 -4
-60 -14 -78 -25 -96 -13 -138 85 -18 41 -47 107 -65 145 -18 39 -42 93 -55
120 -12 28 -32 72 -45 99 l-23 48 55 52 c30 28 79 73 109 100 85 77 257 235
324 298 l60 57 134 -70 c73 -39 172 -91 220 -116 47 -25 98 -58 113 -74 29
-30 30 -52 3 -115 -14 -34 -14 -34 43 -98 l56 -64 26 20 c14 11 50 43 80 71
31 29 101 93 155 142 55 50 114 104 132 121 18 17 63 58 101 92 37 33 86 78
109 99 l42 39 -57 63 c-56 62 -58 63 -96 55 -59 -11 -77 -11 -116 -1 -31 7
-649 314 -1629 809 -173 87 -318 158 -322 158 -4 0 -40 -30 -81 -67z m417
-713 c17 -9 89 -48 160 -85 160 -84 167 -88 182 -98 14 -9 21 -2 -123 -132
-48 -44 -106 -97 -127 -118 -22 -20 -56 -51 -75 -68 l-35 -31 -54 124 c-79
182 -113 258 -133 303 -48 105 -120 269 -120 272 0 4 269 -134 325 -167z"/>
<path d="M5874 31543 c-166 -38 -358 -184 -549 -418 -22 -26 -116 -141 -208
-254 -92 -113 -178 -218 -190 -232 -12 -14 -58 -70 -102 -125 -44 -54 -86
-105 -93 -112 -7 -8 -25 -30 -40 -50 -15 -20 -42 -52 -59 -71 -18 -20 -33 -39
-33 -42 0 -7 41 -44 92 -82 l37 -27 48 26 c78 44 88 38 338 -167 278 -229 266
-219 480 -394 173 -141 243 -198 268 -220 10 -9 231 -189 307 -250 14 -11 44
-39 68 -63 47 -47 51 -69 26 -132 -19 -47 -18 -49 62 -111 l54 -42 23 29 c12
16 54 67 93 114 38 47 154 187 257 312 l186 227 -66 54 -67 54 -45 -31 c-51
-36 -78 -36 -126 -3 -32 23 -291 233 -313 254 -10 10 2 53 69 230 156 416 197
575 204 789 4 150 -37 355 -81 405 -8 8 -14 19 -14 23 0 13 -77 111 -117 147
-42 39 -140 107 -188 132 -42 21 -174 47 -225 44 -23 -1 -66 -8 -96 -14z m34
-577 c101 -51 190 -176 212 -298 13 -70 17 -205 7 -275 -13 -97 -68 -327 -86
-360 -4 -7 -56 29 -141 99 -74 60 -153 124 -174 141 -22 18 -53 44 -70 59 -17
14 -76 63 -131 108 -55 44 -119 97 -143 116 -24 20 -41 41 -40 46 9 26 169
209 234 268 62 56 174 130 174 114 0 -3 7 -1 16 4 26 15 89 5 142 -22z"/>
<path d="M38425 31268 c-33 -28 -60 -54 -60 -57 0 -3 9 -27 19 -54 34 -86 28
-93 -279 -352 -26 -22 -57 -48 -69 -58 -11 -10 -41 -35 -66 -57 -88 -75 -286
-243 -339 -289 -30 -25 -76 -64 -101 -86 -25 -22 -68 -58 -94 -80 -27 -22 -67
-56 -90 -76 -176 -154 -287 -244 -321 -259 -35 -17 -42 -17 -74 -4 -19 8 -43
21 -51 29 -9 8 -20 15 -24 15 -18 0 -134 -105 -128 -116 4 -6 28 -36 53 -65
90 -104 304 -356 344 -404 45 -54 105 -123 150 -172 l30 -33 64 58 64 58 -15
29 c-26 51 -29 89 -9 121 10 17 76 79 147 139 71 60 147 125 170 144 52 46 86
75 154 131 30 25 60 50 65 56 6 6 53 46 105 90 52 43 100 84 105 90 6 6 53 46
105 90 52 43 101 84 108 91 7 7 34 29 60 50 26 21 52 43 57 49 19 21 210 181
253 211 50 36 82 36 149 -3 23 -13 43 -21 45 -16 2 4 29 29 61 55 31 27 57 52
57 55 0 4 -17 25 -38 47 -20 22 -75 85 -122 140 -47 55 -94 111 -106 125 -12
14 -66 77 -119 140 -166 195 -188 220 -194 220 -3 0 -33 -23 -66 -52z"/>
<path d="M8763 29855 c-23 -6 -44 -13 -48 -16 -3 -4 24 -95 60 -204 185 -559
390 -1305 411 -1498 3 -29 7 -58 9 -64 3 -7 1 -13 -4 -13 -10 0 -34 19 -195
153 -150 125 -226 178 -310 218 -69 33 -95 35 -141 14 -39 -19 -58 -52 -58
-102 0 -73 16 -121 136 -418 121 -298 159 -445 122 -475 -25 -21 -113 -16
-264 14 -73 15 -149 29 -168 31 -47 4 -95 -12 -116 -41 -75 -101 16 -232 438
-629 76 -71 186 -176 244 -232 l106 -101 -30 -7 c-61 -13 -116 -37 -154 -68
-22 -18 -40 -36 -40 -41 -1 -5 -9 -18 -18 -29 -28 -30 -24 -149 6 -207 24 -46
150 -175 352 -360 275 -252 446 -491 640 -895 93 -194 108 -228 163 -360 26
-60 50 -119 55 -130 5 -11 16 -36 24 -55 24 -56 107 -258 137 -335 15 -38 44
-110 64 -159 21 -50 46 -113 58 -140 11 -28 24 -60 29 -71 4 -11 60 -144 123
-295 104 -252 191 -455 244 -570 11 -25 40 -90 65 -145 123 -274 364 -759 489
-985 41 -74 90 -162 108 -195 157 -283 465 -765 729 -1140 111 -158 404 -556
453 -615 16 -19 32 -39 36 -45 31 -42 203 -260 277 -351 49 -61 106 -130 125
-154 19 -24 40 -48 45 -54 6 -6 64 -76 130 -156 66 -80 122 -147 125 -150 3
-3 39 -45 80 -95 41 -49 77 -92 80 -95 3 -3 27 -32 55 -65 27 -33 52 -62 55
-65 3 -3 52 -61 109 -130 57 -69 113 -136 125 -150 60 -69 261 -325 296 -376
143 -209 206 -335 230 -464 9 -50 16 -121 25 -250 9 -120 14 -187 20 -245 3
-27 8 -75 11 -105 3 -30 7 -66 9 -80 2 -14 6 -50 10 -80 13 -114 16 -136 20
-160 2 -14 7 -47 10 -75 8 -64 14 -107 25 -175 5 -30 12 -75 15 -100 3 -25 14
-94 25 -155 10 -60 21 -128 25 -150 3 -22 13 -78 21 -125 21 -110 22 -116 34
-175 5 -27 12 -63 15 -80 10 -62 16 -90 20 -105 2 -8 7 -31 10 -50 3 -19 12
-66 20 -105 8 -38 16 -81 18 -95 4 -21 48 -225 113 -530 8 -36 21 -92 29 -125
8 -33 16 -71 19 -85 14 -81 156 -656 230 -930 66 -247 189 -665 273 -925 25
-77 46 -147 48 -155 2 -8 63 -188 135 -400 72 -212 134 -394 137 -405 2 -11 9
-29 13 -40 18 -40 288 -835 295 -867 2 -10 22 -75 44 -145 36 -116 112 -382
125 -443 3 -14 15 -63 26 -110 20 -90 76 -371 84 -430 6 -42 16 -105 22 -142
10 -66 13 -86 18 -128 3 -25 8 -54 10 -65 4 -19 15 -93 21 -142 2 -12 6 -34 9
-50 4 -15 8 -39 11 -53 22 -119 51 -193 95 -240 l27 -29 -50 -41 c-52 -42
-152 -128 -196 -168 -14 -13 -51 -46 -81 -72 -30 -26 -66 -59 -81 -72 -14 -12
-63 -57 -109 -98 -46 -41 -95 -86 -109 -99 -14 -13 -59 -53 -100 -90 -41 -36
-82 -73 -90 -81 -32 -30 -258 -217 -319 -264 -138 -105 -313 -206 -652 -375
-476 -238 -633 -322 -965 -518 -237 -139 -587 -392 -770 -556 -121 -108 -301
-292 -389 -397 -43 -52 -86 -104 -95 -116 -45 -53 -174 -257 -207 -327 -49
-105 -64 -206 -41 -279 32 -103 116 -183 272 -260 124 -62 358 -132 512 -153
21 -3 54 -8 73 -11 19 -3 44 -7 55 -9 40 -6 142 -17 200 -21 33 -3 94 -7 135
-10 41 -3 482 -7 980 -9 498 -1 988 -5 1090 -9 102 -4 244 -9 315 -11 72 -3
204 -7 295 -11 91 -3 226 -7 300 -9 165 -5 916 -5 985 0 28 2 111 6 185 10 74
3 151 8 170 10 19 2 80 6 135 10 55 4 114 8 130 9 17 2 68 6 115 10 47 4 96 9
110 11 14 3 54 7 90 10 36 4 76 8 90 10 14 3 52 7 85 10 33 2 94 9 135 14 41
6 100 13 130 16 30 3 66 8 80 10 14 2 43 7 65 9 140 18 272 35 305 41 14 3 48
7 75 11 28 3 61 7 75 9 14 2 45 6 70 10 25 3 59 8 75 10 17 2 57 9 90 14 33 6
83 13 110 17 72 9 83 10 150 22 33 6 80 14 105 17 25 3 52 8 60 10 8 2 35 7
60 10 25 4 117 20 205 36 88 16 174 32 190 35 17 2 95 18 175 35 80 17 156 33
170 35 47 10 195 44 320 74 69 17 143 35 165 40 22 4 67 16 100 24 33 9 68 18
77 21 10 2 71 18 135 36 65 17 150 39 188 49 39 10 88 24 110 30 22 6 144 41
270 77 396 111 1588 451 1640 467 28 9 102 31 165 50 322 96 422 127 465 143
22 8 41 15 42 14 7 -1 417 134 533 176 183 66 456 176 568 229 62 30 114 54
116 54 1 0 54 28 117 61 376 202 653 411 994 754 169 169 206 209 349 370 126
141 144 162 211 240 33 39 62 72 65 75 3 3 28 32 55 65 28 33 60 71 72 85 12
14 30 34 40 46 25 30 119 138 172 198 171 198 504 539 624 641 33 28 64 55 71
61 90 85 338 256 518 359 325 186 791 352 1123 400 23 3 50 7 62 9 12 3 43 7
70 11 26 4 59 8 72 10 13 3 58 7 100 10 42 4 83 8 91 10 8 2 62 7 120 10 58 4
128 8 155 10 28 2 104 6 170 10 66 3 145 8 175 10 30 2 100 7 155 10 55 4 120
8 145 10 25 2 83 7 130 10 47 4 105 8 130 10 25 2 83 7 130 10 47 4 105 8 130
10 59 4 216 16 260 20 19 2 85 6 145 10 61 4 135 8 165 11 340 25 1094 25
1285 0 28 -4 135 -13 260 -22 338 -24 586 -19 805 16 30 5 73 11 95 15 22 3
63 10 90 15 28 5 61 12 75 14 64 11 331 68 380 81 57 15 171 42 205 49 50 11
314 82 450 121 397 116 599 197 688 276 90 78 78 179 -31 266 -44 35 -140 103
-146 103 -2 0 -54 31 -115 70 -62 38 -113 70 -116 70 -2 0 -107 61 -232 137
-206 123 -451 282 -543 353 -19 15 -98 74 -175 131 -77 57 -142 107 -145 110
-10 11 -178 127 -255 175 -230 144 -495 248 -720 283 -172 26 -247 32 -410 33
-132 1 -342 -8 -375 -17 -8 -2 -40 -6 -70 -10 -98 -10 -162 -20 -260 -40 -14
-3 -38 -8 -55 -10 -82 -15 -435 -114 -505 -142 -8 -3 -19 -7 -25 -8 -22 -6
-389 -148 -500 -195 -16 -7 -43 -18 -60 -25 -16 -7 -48 -21 -70 -30 -173 -74
-409 -145 -530 -160 -27 -3 -66 -8 -85 -10 -170 -22 -751 -37 -1405 -37 -637
0 -1032 10 -1470 37 -244 15 -338 23 -570 46 -95 9 -126 13 -220 24 -22 3 -65
7 -95 10 -30 4 -62 8 -70 10 -8 2 -42 7 -75 10 -33 3 -67 8 -75 10 -8 2 -35 7
-60 10 -232 31 -858 158 -874 176 -7 8 -58 182 -91 309 -38 149 -70 303 -80
395 -4 33 -9 69 -11 80 -3 11 -7 54 -10 95 -3 41 -7 91 -10 110 -23 201 -23
1409 0 1600 2 14 7 57 11 95 5 39 9 72 10 75 0 3 5 32 10 65 5 33 9 62 10 65
1 3 5 25 9 50 13 77 63 243 108 357 23 59 116 254 206 433 89 179 187 379 216
445 69 155 155 402 191 553 3 9 14 55 25 102 12 47 25 103 29 125 29 139 97
449 121 550 30 124 34 145 51 255 5 36 12 77 14 92 34 189 39 726 10 928 -2
14 -6 48 -9 75 -4 28 -11 75 -16 105 -5 30 -12 70 -15 88 -27 161 -184 652
-265 827 -5 11 -31 74 -58 140 -27 66 -123 289 -212 495 -89 206 -175 404
-190 440 -15 36 -39 90 -52 120 -14 30 -49 109 -78 175 -151 344 -354 767
-526 1095 -193 369 -338 657 -394 785 -33 77 -65 149 -70 160 -5 11 -36 81
-69 156 -116 266 -239 470 -350 580 -87 87 -140 99 -199 45 -31 -28 -51 -99
-67 -242 -12 -109 -32 -180 -82 -293 l-24 -54 -42 40 c-54 51 -84 69 -163 99
-118 44 -285 60 -431 40 -179 -24 -403 -130 -623 -294 -83 -62 -219 -175 -310
-257 -68 -61 -353 -347 -398 -400 -234 -271 -406 -533 -577 -880 -91 -186
-205 -440 -249 -560 -112 -297 -155 -429 -200 -610 -24 -98 -51 -231 -61 -310
-6 -46 -15 -108 -20 -145 -4 -27 -16 -188 -21 -280 -1 -30 -5 -210 -8 -400 -5
-306 -11 -535 -21 -810 -7 -171 -17 -436 -20 -490 -2 -30 -4 -95 -4 -145 l-2
-90 -50 140 c-62 171 -118 323 -130 350 -4 11 -31 79 -60 150 -138 351 -292
683 -404 869 -110 184 -118 195 -241 361 -232 311 -500 580 -1114 1116 -123
107 -335 292 -400 348 -35 31 -82 72 -105 92 -22 20 -53 47 -70 61 -31 27
-496 422 -594 506 -285 242 -932 761 -1256 1008 -197 151 -624 471 -671 504
-12 8 -154 112 -315 229 -162 118 -312 227 -334 243 -22 15 -159 113 -305 218
-146 106 -281 202 -300 216 -300 207 -1582 1142 -2514 1834 -246 184 -890 665
-910 681 -6 5 -108 84 -226 176 -118 92 -217 169 -220 172 -3 3 -41 35 -85 71
-314 255 -590 518 -805 769 -30 35 -60 69 -65 75 -6 6 -39 47 -75 91 -35 44
-67 82 -70 85 -3 3 -17 21 -30 40 -13 19 -27 37 -30 40 -4 3 -63 78 -133 167
-69 89 -134 171 -144 184 -45 55 -141 168 -174 204 -20 22 -49 54 -64 70 -14
17 -106 112 -203 213 -228 238 -243 254 -311 337 -93 114 -122 158 -188 287
-15 30 -26 31 -100 13z m7109 -6550 c84 -13 241 -77 397 -160 208 -112 268
-149 541 -332 232 -156 273 -185 480 -338 63 -48 126 -94 139 -103 101 -73
665 -516 761 -598 14 -12 84 -70 155 -130 110 -92 314 -265 351 -299 31 -28
160 -142 178 -158 29 -25 184 -167 275 -252 103 -96 468 -461 567 -566 431
-460 851 -1016 1091 -1444 141 -251 313 -651 325 -752 1 -5 7 -23 15 -40 7
-18 11 -33 9 -33 -3 0 1 -18 9 -40 8 -22 14 -43 14 -45 -1 -5 13 -82 16 -95 1
-3 5 -27 9 -55 4 -27 11 -72 16 -100 5 -27 11 -79 15 -115 3 -36 8 -83 10
-105 2 -22 6 -67 9 -100 12 -128 17 -182 22 -235 3 -30 7 -73 9 -95 6 -64 15
-138 20 -170 3 -16 7 -50 10 -75 5 -38 19 -122 50 -295 3 -16 23 -102 45 -190
126 -514 399 -1179 748 -1825 128 -238 147 -270 375 -645 181 -297 566 -840
861 -1215 116 -147 109 -139 121 -153 6 -7 42 -50 80 -97 38 -47 79 -96 91
-110 12 -14 88 -104 169 -200 81 -96 157 -186 169 -200 29 -34 81 -110 91
-135 20 -49 12 -60 -50 -69 -36 -6 -118 -20 -170 -30 -32 -6 -109 -19 -125
-21 -8 -2 -28 -5 -45 -9 -16 -3 -41 -8 -55 -11 -14 -2 -50 -10 -80 -16 -30 -6
-59 -12 -65 -13 -5 -1 -19 -5 -30 -9 -11 -3 -38 -8 -60 -12 -22 -3 -64 -12
-95 -19 -30 -8 -81 -17 -114 -21 -32 -4 -68 -8 -80 -10 -11 -2 -43 -6 -71 -10
-27 -3 -59 -8 -70 -11 -11 -2 -36 -6 -55 -9 -44 -5 -180 -28 -235 -39 -11 -2
-40 -7 -65 -11 -25 -4 -94 -18 -155 -32 -60 -13 -121 -26 -135 -28 -38 -5
-107 -21 -325 -76 -524 -131 -1260 -357 -1835 -564 -308 -110 -324 -116 -345
-126 -24 -10 -856 -329 -870 -333 -5 -2 -17 -6 -25 -9 -95 -41 -482 -169 -549
-182 -55 -12 -117 -21 -131 -19 -8 0 -29 2 -47 2 -65 4 -112 67 -181 244 -58
148 -162 502 -186 628 -2 14 -16 77 -30 140 -13 63 -27 129 -29 145 -36 214
-49 294 -52 315 -10 72 -15 110 -20 155 -3 28 -7 66 -10 85 -2 19 -7 62 -10
95 -3 33 -8 74 -10 90 -2 17 -7 73 -11 125 -3 52 -7 109 -9 125 -27 238 -27
1284 0 1615 1 19 6 76 9 125 4 50 9 106 11 125 2 19 6 73 10 119 4 46 8 91 10
100 1 9 6 45 9 81 4 36 9 81 11 100 3 19 7 55 10 80 5 46 33 255 40 300 2 14
7 48 11 75 3 28 8 57 9 65 3 16 14 91 20 130 4 21 14 91 30 190 2 14 6 41 9
60 3 19 15 89 26 155 21 121 23 130 36 220 5 28 9 52 9 55 1 3 5 25 9 50 5 25
10 54 12 65 2 11 9 49 15 85 20 125 28 174 35 215 10 49 31 178 38 225 9 60
46 294 50 315 2 11 7 45 10 76 4 31 8 66 10 76 3 11 7 44 11 73 4 29 8 61 10
71 2 10 6 45 10 78 3 33 7 68 9 78 2 10 7 52 11 93 4 41 8 82 10 90 6 38 20
212 30 380 7 111 7 380 0 430 -2 19 -6 55 -9 80 -15 129 -73 268 -153 367 -27
34 -125 141 -219 239 -216 226 -200 209 -264 284 -30 36 -60 70 -66 75 -6 6
-56 64 -111 130 -463 558 -884 1161 -1143 1640 -41 75 -210 413 -210 420 0 2
-14 35 -31 72 -149 323 -299 792 -363 1128 -25 133 -27 155 -31 291 -6 214 32
301 140 324 32 7 49 6 117 -5z m9946 -1836 c26 -7 54 -18 63 -25 8 -8 21 -14
27 -14 22 0 148 -136 208 -225 83 -122 155 -256 252 -465 66 -143 221 -524
289 -710 19 -52 38 -104 43 -115 5 -11 22 -58 39 -105 201 -570 300 -941 327
-1225 13 -135 6 -644 -10 -745 -3 -14 -7 -68 -10 -120 -4 -52 -8 -106 -10
-120 -3 -14 -7 -54 -11 -90 -8 -92 -51 -372 -69 -455 -12 -56 -49 -196 -80
-305 -10 -34 -45 -129 -70 -190 -56 -134 -73 -170 -165 -350 -228 -448 -274
-542 -321 -661 -44 -112 -121 -360 -133 -429 -3 -14 -10 -43 -15 -65 -6 -22
-14 -56 -17 -75 -3 -19 -10 -60 -15 -90 -5 -30 -12 -75 -15 -100 -3 -25 -8
-52 -10 -60 -2 -8 -7 -44 -10 -80 -4 -36 -8 -76 -10 -90 -2 -14 -7 -65 -10
-115 -4 -49 -8 -106 -10 -125 -18 -199 -25 -901 -11 -1185 13 -272 21 -372 42
-535 4 -30 8 -62 9 -70 2 -14 18 -109 20 -120 1 -3 5 -25 9 -50 12 -69 62
-256 91 -339 14 -41 25 -76 25 -79 0 -2 -21 -1 -47 2 -27 4 -68 9 -93 11 -25
3 -58 7 -75 9 -16 3 -52 7 -80 11 -27 4 -95 13 -150 21 -55 8 -118 18 -140 21
-154 21 -547 108 -700 154 -148 46 -170 53 -283 98 -364 145 -708 380 -921
627 -49 57 -134 190 -165 258 -86 189 -95 451 -24 756 12 52 23 100 24 105 13
68 121 396 164 500 5 11 25 63 45 115 45 113 65 161 113 270 37 85 59 135 60
140 1 3 17 38 37 78 19 40 35 75 35 78 0 4 123 254 274 558 151 303 287 580
304 616 16 36 40 88 52 115 183 403 290 739 317 1000 13 130 6 467 -12 518 -3
7 -7 30 -9 52 -3 22 -10 65 -16 95 -6 30 -13 69 -16 85 -3 17 -9 46 -14 65 -5
19 -11 49 -14 65 -3 17 -15 71 -26 120 -27 120 -68 338 -75 400 -3 28 -7 66
-10 85 -31 235 -26 714 10 960 2 14 7 48 11 75 3 28 8 59 10 70 3 11 7 35 10
54 28 168 87 377 155 549 142 359 385 670 597 764 86 39 135 45 210 27z
m-1804 -4196 c-48 -81 -183 -301 -299 -488 -234 -376 -415 -673 -415 -681 0
-3 -16 -30 -35 -60 -19 -30 -35 -56 -35 -59 0 -2 -14 -28 -31 -57 -112 -189
-295 -560 -374 -758 -21 -52 -43 -108 -50 -125 -15 -35 -81 -241 -119 -370
-35 -117 -75 -234 -91 -264 l-12 -25 -14 25 c-14 26 -18 173 -7 244 13 76 38
190 60 265 40 141 133 413 158 465 5 11 19 44 30 74 19 48 43 106 70 166 287
635 567 1087 910 1470 75 85 332 337 337 331 3 -2 -35 -71 -83 -153z m-1261
-85 c-6 -7 -43 -76 -83 -153 -113 -217 -154 -288 -310 -530 -19 -30 -66 -103
-103 -162 -38 -59 -95 -148 -127 -198 -32 -49 -96 -148 -141 -220 -116 -182
-113 -180 -106 -60 7 117 8 125 43 230 26 77 107 251 143 304 10 14 44 66 77
116 48 73 169 229 219 281 5 6 48 53 95 105 136 149 293 310 298 304 3 -2 0
-10 -5 -17z m10689 -5282 c94 -28 151 -56 245 -123 229 -161 241 -305 57 -691
-150 -317 -260 -409 -536 -447 -39 -5 -272 -6 -308 -1 -14 2 -49 7 -78 10 -29
4 -76 11 -105 17 -28 5 -68 12 -87 15 -19 3 -93 19 -164 35 -70 16 -138 31
-150 33 -27 6 -255 65 -406 106 -63 17 -122 32 -130 34 -8 2 -90 25 -181 50
-272 75 -546 134 -699 151 -30 3 -66 8 -80 10 -52 8 -176 20 -325 31 -69 5
-499 5 -560 0 -27 -2 -90 -7 -140 -10 -49 -4 -101 -9 -115 -11 -14 -2 -45 -7
-70 -9 -70 -8 -189 -27 -315 -51 -62 -12 -181 -34 -215 -39 -19 -4 -46 -8 -60
-11 -14 -3 -47 -7 -75 -11 -27 -3 -59 -8 -70 -10 -89 -17 -410 -21 -775 -10
-452 14 -622 24 -740 41 -14 2 -50 7 -80 10 -86 10 -195 34 -270 59 -68 23
-154 67 -164 85 -11 17 64 20 369 14 556 -10 868 -7 1080 12 28 2 82 7 120 10
39 3 84 7 100 9 17 2 57 7 90 10 33 4 76 9 95 11 19 3 53 7 75 9 22 3 56 8 75
10 71 11 326 48 345 50 11 2 40 6 65 10 25 4 56 9 70 11 29 4 108 16 130 20 8
1 40 6 70 10 30 4 62 9 70 10 8 1 40 6 70 10 30 3 66 8 80 10 42 6 133 17 170
20 19 2 58 6 85 9 167 19 414 33 705 41 232 6 464 15 540 20 36 2 133 7 215
10 289 12 326 20 570 122 339 142 694 261 865 289 14 2 36 7 50 10 49 12 66
14 130 20 36 4 66 8 68 9 2 2 49 1 105 0 71 -3 128 -11 189 -29z m-8055 -93
c15 -40 18 -77 18 -223 -1 -153 -4 -206 -21 -345 -2 -16 -6 -59 -10 -95 -3
-35 -8 -73 -10 -84 -25 -131 -24 -640 1 -802 3 -16 7 -42 10 -59 2 -16 7 -48
10 -70 50 -341 188 -897 301 -1215 60 -167 168 -386 242 -489 83 -116 138
-178 277 -311 347 -334 421 -431 469 -616 l14 -54 -26 6 c-77 18 -344 180
-513 310 -398 308 -574 563 -772 1119 -31 87 -92 281 -102 325 -2 8 -13 49
-24 91 -26 94 -43 170 -81 369 -29 152 -33 179 -45 270 -3 25 -7 54 -9 65 -2
11 -7 56 -11 100 -4 44 -9 94 -11 110 -8 65 -17 327 -17 465 1 164 17 469 28
510 2 8 7 42 10 75 17 157 79 380 132 475 29 52 91 120 109 120 7 0 21 -21 31
-47z m9070 -108 c86 -36 119 -108 88 -191 -58 -155 -318 -121 -330 43 -8 116
125 197 242 148z m-9924 -104 c20 -7 37 -19 37 -27 0 -24 -39 -94 -88 -159
-43 -56 -281 -299 -348 -355 -43 -36 -178 -154 -184 -161 -3 -3 -93 -75 -200
-160 -405 -322 -563 -432 -751 -522 -225 -107 -307 -131 -959 -282 -134 -31
-481 -121 -675 -175 -82 -23 -159 -44 -170 -47 -11 -3 -27 -7 -35 -10 -8 -3
-22 -7 -30 -9 -97 -20 -939 -287 -1035 -329 -16 -7 -57 -23 -90 -36 -93 -36
-271 -126 -350 -176 -38 -25 -119 -85 -180 -133 -126 -99 -181 -134 -251 -155
-137 -42 -266 -38 -416 13 -203 69 -285 26 -561 -299 -161 -190 -149 -184
-377 -184 -181 0 -186 -1 -235 -26 -117 -62 -192 -178 -239 -369 -14 -58 -28
-121 -31 -140 -3 -19 -15 -81 -25 -138 -11 -57 -20 -105 -20 -108 0 -3 -5 -2
-11 2 -7 4 -43 73 -81 153 -119 252 -163 331 -206 372 -110 102 -219 61 -303
-116 -36 -75 -81 -230 -94 -320 -4 -22 -8 -47 -10 -55 -9 -34 -18 -142 -19
-248 -1 -106 20 -251 52 -347 36 -113 127 -250 225 -341 222 -205 588 -372
1307 -594 196 -61 470 -150 505 -165 17 -7 62 -25 100 -41 164 -66 288 -151
325 -225 67 -130 -48 -334 -288 -511 -125 -92 -259 -149 -412 -172 -160 -25
-1322 3 -1610 39 -195 25 -335 48 -535 91 -55 11 -236 44 -280 50 -27 3 -59 8
-70 10 -114 21 -454 20 -640 -1 -16 -2 -55 -6 -85 -10 -30 -3 -66 -8 -80 -10
-14 -2 -47 -6 -75 -10 -27 -3 -61 -8 -75 -10 -14 -2 -86 -14 -160 -25 -74 -12
-144 -23 -155 -25 -21 -5 -76 -13 -135 -21 -19 -2 -60 -8 -90 -14 -30 -5 -75
-11 -100 -14 -25 -4 -56 -8 -70 -11 -40 -9 -306 -16 -324 -9 -16 6 -15 8 1 19
21 15 170 61 223 70 19 3 42 8 50 10 8 2 132 25 275 50 695 122 922 206 1195
443 57 49 93 87 227 239 73 82 305 366 361 443 195 263 246 489 129 574 -21
16 -44 21 -86 21 -70 0 -163 -43 -322 -149 -58 -39 -113 -75 -121 -81 -9 -5
-60 -40 -114 -76 -240 -160 -374 -228 -669 -335 -331 -122 -520 -208 -680
-309 -27 -17 -57 -34 -65 -38 -8 -3 -58 -33 -110 -66 -466 -295 -825 -484
-985 -517 -111 -24 -139 -14 -130 43 19 123 201 381 505 718 77 86 452 457
519 515 35 30 69 60 75 65 6 6 29 24 51 40 22 17 42 33 45 36 3 3 50 38 105
77 55 40 105 75 110 80 6 4 138 93 295 197 251 168 526 358 540 374 3 3 52 42
110 86 116 87 318 250 635 511 17 14 48 40 69 57 56 46 274 223 321 262 22 18
81 65 130 105 161 128 282 228 340 279 86 75 575 480 675 558 500 390 900 616
1565 883 235 94 462 178 835 307 118 41 251 87 295 102 714 249 1323 443 1525
486 8 2 80 20 160 39 127 31 336 78 410 92 14 2 57 11 95 20 39 8 81 17 95 19
14 3 66 14 115 24 291 64 512 113 528 116 10 2 26 6 35 9 9 3 35 7 57 10 22 3
105 15 185 26 80 12 163 24 185 26 22 3 47 7 55 9 8 3 33 7 55 10 67 10 207
43 270 65 33 12 94 23 135 27 41 3 76 7 78 8 9 8 194 -4 225 -14z"/>
<path d="M32798 11755 c-2 -2 -28 -6 -58 -9 -295 -35 -525 -134 -664 -287 -87
-97 -115 -165 -108 -265 6 -79 202 -187 486 -269 48 -14 98 -27 110 -29 83
-17 127 -25 166 -31 25 -3 52 -8 60 -10 75 -20 320 -26 407 -10 141 27 204 80
336 282 202 309 185 482 -55 571 -114 43 -254 60 -485 60 -105 0 -193 -2 -195
-3z"/>
<path d="M40217 29043 c-2 -1 -242 -49 -337 -67 -14 -3 -172 -34 -351 -70
-180 -36 -337 -67 -350 -70 -13 -2 -85 -16 -159 -31 -74 -15 -146 -29 -160
-31 -30 -5 -164 -32 -200 -40 -14 -3 -92 -18 -175 -34 -82 -16 -186 -36 -230
-44 -115 -23 -168 -21 -226 9 l-49 24 -71 -45 -70 -46 17 -26 c10 -15 29 -45
42 -67 12 -22 41 -67 62 -100 21 -33 51 -80 66 -105 15 -25 46 -74 69 -110 23
-36 58 -91 77 -122 l35 -58 62 40 c34 22 66 40 71 40 6 0 8 26 4 68 -6 60 -4
69 14 86 12 10 47 24 79 31 32 7 148 36 258 63 109 28 200 50 200 49 11 -18
237 -376 260 -412 18 -27 56 -87 84 -133 l52 -84 -27 -36 c-16 -20 -31 -39
-34 -42 -3 -3 -63 -78 -134 -168 -70 -89 -137 -167 -148 -173 -25 -13 -88 2
-108 26 -7 8 -19 15 -27 15 -13 0 -77 -36 -141 -78 -9 -6 30 -76 154 -273 92
-145 174 -276 183 -290 9 -15 36 -58 60 -98 24 -39 47 -73 51 -76 4 -2 39 16
78 41 68 43 71 46 68 81 -5 50 16 121 50 170 27 39 773 1030 811 1078 4 6 55
73 113 150 57 77 110 147 117 155 75 90 232 314 226 323 -4 7 -31 50 -61 96
-30 46 -75 118 -101 160 -130 212 -144 231 -174 229 -15 -1 -29 -3 -30 -5z
m-467 -695 c-127 -161 -236 -293 -242 -293 -5 0 -50 63 -99 140 -154 244 -168
270 -156 276 10 5 162 43 220 54 10 3 27 7 37 10 10 3 28 8 39 10 12 3 29 7
39 9 9 2 40 10 67 16 28 6 57 13 65 15 67 17 144 35 167 40 15 3 42 9 58 13
17 5 31 8 33 6 2 -1 -100 -134 -228 -296z"/>
<path d="M3325 28482 c-16 -31 -108 -201 -203 -377 -95 -176 -174 -324 -175
-329 -1 -5 32 -27 73 -49 l75 -40 38 37 c50 47 85 47 175 2 l67 -34 47 -134
c25 -73 92 -263 148 -423 56 -159 120 -342 142 -405 21 -63 51 -146 65 -183
14 -38 23 -70 20 -73 -3 -3 -65 27 -138 67 -74 39 -163 87 -199 107 -36 19
-87 47 -115 62 -81 44 -150 82 -325 176 -91 48 -180 103 -199 121 -30 30 -33
38 -28 76 2 23 8 49 11 58 5 11 -12 26 -70 57 -43 23 -78 41 -79 39 -4 -6 -66
-118 -97 -177 -39 -71 -50 -93 -210 -387 -60 -112 -107 -207 -104 -212 3 -5
36 -25 74 -44 l67 -35 37 34 c46 41 80 51 127 34 30 -10 200 -100 476 -250 28
-15 82 -44 120 -65 39 -21 93 -50 120 -65 56 -31 140 -76 260 -140 44 -23 103
-55 130 -70 120 -65 166 -90 260 -140 113 -60 173 -96 194 -118 13 -13 18 -79
9 -136 -4 -26 131 -102 148 -83 6 7 35 57 64 112 29 55 74 138 100 185 26 47
71 130 100 185 62 117 99 185 129 239 12 21 20 40 19 42 -2 2 -36 21 -75 43
l-72 39 -22 -22 c-60 -57 -101 -68 -149 -42 -14 8 -57 30 -97 50 -39 20 -73
42 -76 49 -12 33 -85 241 -177 502 -55 160 -111 319 -124 355 -65 176 -126
353 -123 356 1 1 56 -27 122 -62 66 -36 152 -82 190 -103 394 -210 697 -377
720 -397 24 -20 30 -33 30 -67 0 -23 -3 -53 -5 -66 -4 -22 3 -29 68 -64 59
-32 75 -37 87 -27 8 7 15 16 15 21 0 7 37 78 150 284 64 117 164 302 207 384
18 36 30 68 26 71 -5 4 -38 23 -74 43 l-67 35 -23 -25 c-36 -38 -77 -56 -112
-49 -24 5 -463 236 -782 411 -22 12 -71 39 -110 60 -38 21 -97 52 -130 70
-213 116 -297 161 -383 207 -53 28 -114 62 -135 75 -56 35 -75 91 -53 159 6
19 -2 26 -56 54 -35 18 -67 36 -72 41 -16 15 -20 11 -51 -49z"/>
<path d="M2441 28200 c-36 -27 -69 -54 -74 -59 -5 -5 5 -29 26 -60 20 -28 43
-74 53 -103 21 -64 24 -171 7 -230 -15 -54 -75 -118 -130 -142 -54 -24 -77
-25 -133 -9 l-45 13 -37 -42 c-38 -42 -44 -54 -30 -60 4 -1 50 -57 103 -123
53 -66 105 -130 115 -143 23 -28 31 -24 135 50 121 86 219 223 243 340 3 13 8
34 11 48 13 51 7 246 -9 298 -22 76 -71 163 -124 221 l-47 50 -64 -49z"/>
<path d="M41562 26744 c-66 -30 -73 -36 -66 -56 8 -27 8 -70 -1 -97 -10 -31
-58 -55 -570 -278 -44 -19 -98 -43 -120 -53 -180 -83 -919 -405 -951 -416 -49
-15 -80 -3 -124 48 l-28 32 -76 -34 c-42 -18 -76 -36 -76 -41 0 -10 248 -577
266 -607 1 -2 36 12 78 29 l76 33 0 62 c0 99 -51 68 606 357 231 102 440 194
465 205 159 73 323 142 326 138 4 -3 -61 -191 -96 -281 -22 -55 -62 -163 -197
-530 -80 -220 -175 -479 -211 -575 -36 -96 -67 -185 -70 -197 -3 -12 -10 -26
-17 -31 -34 -26 -238 -105 -282 -109 -53 -6 -77 7 -115 63 l-14 21 -72 -31
c-40 -18 -75 -35 -78 -38 -6 -6 22 -79 72 -188 14 -30 34 -75 45 -100 11 -25
26 -58 33 -75 7 -16 35 -80 62 -141 35 -79 53 -109 63 -106 8 2 39 15 68 28
29 13 57 24 62 24 6 0 10 27 10 61 0 101 -8 95 311 234 123 54 248 108 277
121 28 13 76 35 105 48 28 13 106 47 172 76 66 28 138 60 160 70 22 9 56 24
75 33 64 28 314 139 368 163 216 97 236 99 303 21 l24 -28 78 33 c54 23 76 37
74 48 -9 36 -263 600 -270 600 -4 0 -41 -14 -82 -32 -69 -30 -74 -34 -68 -57
12 -47 7 -92 -14 -119 -15 -20 -94 -60 -308 -155 -159 -70 -292 -126 -296
-125 -3 2 31 104 78 228 46 124 92 248 102 275 10 28 73 199 140 380 68 182
123 337 123 345 1 8 -24 72 -55 143 -31 70 -82 184 -113 255 -31 70 -68 154
-83 187 -15 33 -38 86 -52 117 -13 32 -28 57 -34 57 -5 0 -43 -16 -83 -35z"/>
<path d="M1746 25440 c-82 -226 -147 -412 -145 -414 2 -2 39 -16 82 -32 66
-23 80 -25 88 -13 32 52 69 79 108 79 28 0 143 -39 157 -54 6 -6 35 -56 64
-111 29 -55 83 -156 120 -225 37 -69 95 -179 130 -245 34 -66 88 -167 120
-225 119 -219 181 -340 173 -340 -8 0 -377 132 -418 150 -11 5 -96 36 -190 70
-93 34 -186 67 -205 75 -19 7 -80 30 -134 51 -134 50 -152 70 -147 169 2 29
-1 31 -75 58 -43 15 -81 24 -84 20 -4 -5 -21 -48 -39 -98 -18 -49 -39 -106
-46 -125 -39 -102 -130 -350 -141 -385 -7 -22 -27 -76 -43 -120 -17 -44 -31
-83 -31 -87 0 -4 24 -15 53 -26 28 -11 64 -25 79 -31 24 -9 28 -7 53 29 31 45
72 65 120 57 30 -5 331 -110 390 -137 11 -4 40 -15 65 -23 64 -21 351 -126
375 -137 11 -5 103 -39 205 -75 159 -58 436 -159 577 -212 62 -23 77 -45 83
-120 l5 -65 77 -28 76 -28 22 56 c31 84 47 127 169 461 61 168 108 308 104
311 -5 4 -39 19 -77 34 l-69 27 -42 -45 c-35 -38 -48 -46 -78 -46 -34 0 -201
53 -223 71 -6 5 -28 42 -49 81 -20 40 -54 105 -75 143 -21 39 -58 108 -83 155
-24 47 -58 110 -74 140 -17 30 -50 93 -75 140 -25 47 -62 117 -83 155 -21 39
-65 122 -98 185 -33 63 -64 121 -70 128 -5 7 -7 15 -4 18 4 5 758 -266 1037
-372 101 -38 115 -54 115 -128 l0 -61 65 -23 c36 -13 73 -25 83 -25 19 -2 53
85 217 538 15 44 44 124 64 178 25 70 32 99 23 102 -6 2 -42 15 -78 29 l-66
24 -37 -39 c-47 -51 -74 -61 -123 -47 -21 5 -173 59 -338 120 -165 60 -374
137 -465 170 -91 33 -208 76 -260 95 -52 19 -126 46 -165 60 -38 13 -79 28
-90 33 -11 4 -72 27 -135 50 -213 76 -231 90 -234 181 l-1 51 -60 23 c-33 12
-69 25 -80 28 -18 6 -33 -29 -169 -403z"/>
<path d="M855 22868 c-3 -7 -55 -206 -116 -443 -61 -236 -112 -432 -114 -436
-4 -5 147 -50 168 -49 4 0 7 9 7 20 0 10 15 35 34 53 61 61 102 34 184 -123
27 -52 81 -156 119 -230 39 -74 107 -205 152 -291 l81 -156 -73 18 c-265 66
-509 131 -540 144 -48 20 -67 50 -67 107 0 46 -1 47 -37 57 -21 5 -58 15 -82
21 -23 6 -45 9 -48 6 -3 -3 -12 -29 -20 -58 -14 -55 -92 -356 -162 -628 -22
-85 -38 -157 -35 -159 3 -3 40 -15 83 -27 l78 -21 19 34 c24 45 60 73 94 73
24 0 137 -28 655 -162 105 -27 294 -76 420 -108 127 -32 257 -66 290 -75 33
-9 123 -32 200 -52 126 -31 204 -63 206 -81 2 -30 11 -99 14 -108 2 -6 14 -14
27 -17 13 -3 49 -12 80 -20 l58 -14 9 36 c42 163 149 581 177 685 18 72 32
131 31 132 -1 2 -38 12 -82 24 -76 20 -81 21 -90 4 -5 -10 -23 -33 -40 -51
-40 -45 -71 -45 -250 2 -77 20 -147 39 -155 40 -25 5 -295 77 -296 78 -8 8
-154 283 -154 289 0 6 4 8 505 181 473 164 450 157 477 152 42 -8 63 -46 60
-112 -1 -21 10 -29 55 -37 10 -2 38 -9 62 -16 23 -6 45 -9 47 -7 5 5 52 176
60 216 3 14 14 57 25 97 11 40 22 81 24 91 2 10 18 72 35 138 18 66 33 127 35
135 2 8 20 77 40 154 20 76 33 141 30 144 -3 3 -11 7 -18 8 -7 1 -32 7 -57 14
-25 6 -54 14 -65 16 -15 4 -27 -6 -49 -38 -49 -72 -87 -96 -233 -150 -76 -27
-147 -54 -158 -58 -11 -4 -56 -20 -100 -35 -44 -15 -87 -29 -95 -32 -8 -4 -19
-7 -25 -9 -5 -2 -201 -71 -435 -155 -485 -172 -489 -174 -494 -168 -2 2 -45
85 -96 184 -51 99 -126 244 -166 323 -84 163 -112 247 -116 350 l-3 72 -40 11
c-22 6 -56 14 -75 20 -45 12 -50 11 -55 -3z"/>
<path d="M43309 22216 c-2 -3 -16 -7 -29 -10 -89 -17 -90 -18 -90 -44 0 -51
-23 -103 -52 -118 -26 -13 -140 -41 -324 -79 -14 -3 -54 -12 -88 -20 -33 -8
-72 -16 -86 -19 -14 -2 -47 -10 -75 -16 -27 -6 -57 -13 -65 -15 -8 -2 -35 -8
-60 -14 -25 -5 -56 -12 -70 -15 -14 -2 -69 -14 -124 -26 -54 -12 -106 -23
-115 -25 -9 -2 -170 -37 -358 -79 -189 -42 -359 -76 -378 -76 -28 0 -43 7 -66
32 -16 18 -32 41 -35 50 -5 16 -16 22 -35 20 -31 -4 -140 -29 -144 -34 -2 -2
5 -39 15 -84 22 -95 27 -114 39 -176 6 -26 31 -141 57 -255 25 -114 48 -219
51 -233 6 -29 7 -34 17 -78 6 -26 12 -31 29 -28 148 27 147 27 148 60 2 80 27
119 88 136 20 6 140 33 266 60 127 28 270 60 319 71 48 11 90 18 93 15 4 -4
43 -172 43 -186 0 -6 -107 -113 -250 -250 -25 -25 -149 -144 -274 -265 -126
-121 -246 -237 -268 -257 -45 -42 -45 -46 -13 -183 17 -73 35 -154 79 -353 18
-84 36 -155 39 -158 3 -3 40 3 83 13 l77 19 14 48 c8 27 25 65 37 85 25 38
661 676 675 676 4 0 32 -31 61 -70 70 -93 114 -139 180 -188 106 -80 174 -106
295 -113 194 -12 383 66 500 207 42 51 108 167 118 209 28 117 33 156 31 235
-3 134 -13 209 -58 430 -8 37 -117 530 -130 590 -8 33 -21 94 -30 135 -87 397
-81 375 -107 378 -14 2 -27 1 -30 -2z m-94 -813 c5 -16 9 -32 10 -38 2 -5 17
-67 34 -138 60 -243 45 -413 -46 -499 -76 -72 -248 -108 -353 -73 -67 22 -144
98 -187 185 -30 59 -72 201 -87 290 -3 19 -12 62 -20 95 -8 33 -13 62 -11 64
6 5 606 139 631 140 16 1 24 -7 29 -26z"/>
<path d="M488 19965 c-58 -58 -133 -144 -168 -192 -86 -121 -191 -342 -215
-452 -3 -11 -7 -31 -10 -43 -13 -52 -26 -126 -30 -168 -3 -25 -8 -61 -11 -80
-9 -64 -6 -315 4 -370 6 -30 13 -68 16 -85 21 -133 104 -340 187 -462 36 -53
122 -158 154 -186 11 -10 36 -33 55 -51 46 -43 180 -131 248 -162 300 -137
654 -132 947 14 152 75 334 222 442 357 115 143 218 341 286 550 23 70 73 262
83 320 15 86 44 317 50 390 6 86 8 415 2 420 -2 2 -39 6 -83 10 -44 4 -87 9
-95 10 -8 2 -51 6 -95 10 -44 4 -89 9 -100 11 -19 4 -144 15 -195 18 -23 1
-25 -3 -35 -84 l-11 -84 57 -60 c112 -115 153 -231 152 -431 0 -99 -38 -250
-91 -368 -100 -218 -282 -388 -508 -473 -125 -47 -225 -63 -368 -59 -150 4
-186 9 -276 37 -279 87 -464 326 -474 611 -2 62 14 185 32 242 73 231 241 332
439 262 40 -14 43 -13 56 7 8 11 31 39 50 61 42 46 44 54 19 81 -9 10 -104
128 -210 262 -107 133 -195 242 -197 242 -1 0 -50 -47 -107 -105z"/>
<path d="M41686 18822 l-38 -3 6 -127 c4 -70 9 -147 11 -172 3 -25 7 -85 9
-135 9 -150 17 -250 22 -254 5 -5 116 0 165 8 4 1 10 18 14 38 8 42 57 94 83
88 23 -6 431 -111 479 -124 30 -8 39 -16 40 -33 0 -13 3 -68 7 -123 4 -55 9
-134 11 -175 3 -41 7 -104 10 -140 2 -36 7 -114 10 -175 l6 -110 -163 -69
c-381 -161 -359 -157 -410 -76 l-31 50 -61 -4 c-34 -2 -73 -5 -88 -5 -17 -1
-26 -6 -23 -13 2 -7 7 -60 10 -118 3 -58 8 -125 10 -150 2 -25 6 -97 10 -160
3 -63 8 -135 10 -160 2 -25 6 -92 10 -150 4 -58 9 -108 11 -111 2 -3 16 -5 31
-3 15 1 52 2 80 3 51 1 53 2 73 40 38 75 80 104 293 201 111 51 236 109 277
127 41 19 172 79 290 133 118 54 249 114 290 133 41 19 201 92 355 162 154 70
316 144 360 164 44 21 104 48 133 61 l53 24 -6 115 c-3 64 -8 132 -10 151 -2
19 -7 91 -11 160 -3 68 -8 131 -9 140 -2 8 -4 18 -4 22 -1 4 -47 21 -103 38
-57 18 -150 47 -208 65 -58 18 -145 46 -195 60 -49 15 -108 34 -130 41 -22 7
-222 70 -445 139 -223 69 -468 145 -545 169 -77 24 -201 63 -275 86 -74 23
-148 49 -165 57 -39 20 -83 61 -101 95 -15 29 -24 30 -148 20z m1334 -838 c74
-19 158 -42 185 -50 28 -7 111 -30 185 -49 74 -20 142 -38 150 -41 9 -3 -35
-27 -100 -55 -63 -27 -128 -56 -145 -64 -73 -34 -146 -65 -151 -65 -3 0 -30
-11 -60 -25 -30 -14 -82 -36 -117 -50 -34 -14 -70 -30 -79 -35 -32 -18 -43
-11 -44 28 -1 20 -4 78 -8 127 -5 72 -17 282 -18 305 -1 25 4 28 35 19 17 -5
93 -25 167 -45z"/>
<path d="M458 17055 c-237 -48 -388 -232 -435 -530 -9 -59 -9 -448 0 -625 4
-69 10 -174 13 -235 3 -60 7 -141 9 -180 2 -38 7 -144 11 -235 6 -160 9 -208
12 -221 2 -6 164 0 170 6 2 2 9 25 16 51 21 84 28 86 321 99 77 3 176 8 220
10 44 3 136 7 205 10 141 6 250 11 425 20 66 3 158 8 205 10 47 2 150 7 230
11 273 13 279 12 315 -71 l24 -53 73 4 c40 3 78 7 84 9 7 2 10 22 9 52 -2 26
-6 113 -10 193 -4 80 -8 174 -10 210 -2 36 -7 137 -11 225 -3 88 -8 167 -10
175 -1 8 -3 18 -3 22 -1 4 -11 5 -23 3 -13 -3 -51 -5 -85 -6 -66 -2 -65 0 -63
-54 1 -11 -29 -62 -42 -73 -17 -13 -65 -19 -253 -27 -77 -4 -159 -8 -182 -10
l-42 -3 -31 81 c-17 45 -35 91 -40 102 -5 11 -36 90 -70 175 -203 513 -424
776 -713 850 -86 21 -227 24 -319 5z m312 -618 c155 -46 301 -200 448 -477 67
-126 68 -135 17 -136 -22 0 -110 -4 -195 -8 -85 -4 -184 -9 -220 -11 -36 -2
-139 -6 -230 -10 -91 -3 -177 -8 -192 -11 -32 -5 -29 -26 -33 212 -4 211 25
338 90 397 68 62 193 80 315 44z"/>
<path d="M42662 15485 c-241 -44 -453 -157 -637 -340 -124 -123 -155 -164
-252 -325 -101 -167 -209 -521 -238 -775 -4 -33 -9 -63 -11 -66 -15 -26 -29
-638 -14 -652 3 -3 34 -8 70 -11 36 -3 85 -8 110 -11 25 -3 77 -7 115 -10 39
-3 90 -7 115 -9 132 -14 180 -16 181 -9 0 4 2 28 5 53 2 25 5 61 7 81 4 33 -1
42 -53 94 -111 109 -154 225 -155 415 0 108 4 138 29 225 110 384 374 625 756
694 134 23 370 5 487 -39 228 -84 388 -273 429 -505 15 -86 6 -226 -21 -320
-74 -254 -216 -338 -456 -269 -12 3 -33 -16 -69 -60 -46 -58 -50 -68 -38 -84
45 -64 414 -502 423 -502 6 0 54 45 107 99 92 96 174 204 231 303 51 89 127
282 142 360 2 11 6 27 9 36 7 23 13 59 21 128 4 33 9 68 11 79 6 29 5 281 -1
341 -14 153 -71 343 -146 482 -45 85 -64 115 -109 176 -20 27 -178 186 -210
211 -120 96 -308 178 -480 210 -70 13 -285 13 -358 0z"/>
<path d="M2349 14766 c-4 -4 -80 -15 -111 -15 -12 -1 -18 -9 -18 -26 0 -13 -7
-42 -16 -64 -17 -43 -51 -65 -119 -75 -22 -4 -67 -11 -100 -16 -33 -5 -80 -12
-105 -15 -25 -3 -56 -7 -70 -10 -14 -2 -43 -7 -65 -10 -22 -3 -51 -7 -65 -10
-14 -2 -41 -6 -60 -9 -19 -3 -53 -8 -75 -11 -22 -3 -53 -8 -70 -10 -24 -3
-218 -32 -335 -49 -14 -2 -56 -9 -93 -15 -37 -6 -87 -14 -111 -17 -24 -2 -55
-7 -67 -9 -13 -3 -44 -8 -69 -11 -25 -3 -54 -8 -65 -10 -11 -2 -45 -7 -75 -10
-30 -3 -57 -7 -60 -9 -12 -7 -128 -20 -181 -20 -65 0 -89 16 -115 75 -10 22
-23 36 -33 35 -16 -2 -109 -17 -123 -21 -5 -1 -14 -2 -21 -3 -11 -1 -11 -14
-1 -73 7 -40 15 -97 19 -127 4 -30 9 -63 11 -75 2 -11 6 -38 9 -61 3 -22 17
-110 30 -195 13 -85 27 -180 30 -210 12 -95 22 -133 33 -126 4 2 30 7 57 11
28 4 59 9 70 10 11 2 23 4 26 4 4 1 9 23 13 50 9 68 42 95 136 111 39 7 76 10
83 7 7 -2 141 -89 297 -192 157 -104 366 -241 465 -306 99 -65 185 -122 190
-127 6 -5 15 -11 21 -13 22 -9 113 -74 109 -77 -2 -3 -15 -6 -27 -7 -13 -2
-52 -8 -88 -14 -36 -5 -85 -13 -110 -16 -25 -4 -115 -17 -200 -30 -184 -28
-225 -34 -276 -40 -22 -3 -46 -7 -54 -10 -8 -2 -40 -7 -70 -10 -30 -4 -77 -11
-105 -16 -27 -5 -80 -12 -118 -15 -90 -8 -121 5 -153 67 -13 27 -29 47 -37 44
-6 -2 -44 -9 -84 -15 -46 -8 -70 -16 -68 -23 2 -7 6 -30 9 -52 3 -22 10 -70
16 -108 10 -67 12 -78 24 -172 4 -27 11 -72 16 -100 5 -27 11 -68 14 -90 3
-22 10 -74 17 -115 6 -41 12 -84 14 -95 17 -141 8 -133 124 -114 l68 11 1 35
c2 45 31 94 65 111 25 12 74 22 187 37 25 3 52 8 60 10 8 2 38 6 65 10 28 3
75 10 105 15 30 5 71 11 90 14 180 26 303 44 340 51 14 2 45 7 70 10 25 3 56
8 70 10 14 2 43 7 65 10 22 3 51 8 65 10 14 2 75 11 135 20 61 9 122 18 136
20 14 3 42 7 62 9 20 3 52 8 69 11 80 13 96 15 148 22 119 14 150 1 185 -78
20 -43 12 -42 136 -21 38 7 44 11 43 32 -1 32 -14 141 -19 160 -2 8 -20 125
-40 260 -19 135 -37 259 -40 275 -3 17 -7 46 -10 65 -14 88 -15 90 -43 86 -15
-3 -52 -8 -83 -11 l-55 -7 -13 -59 c-13 -67 -29 -82 -101 -98 -46 -10 -143
-24 -170 -25 -8 0 -143 85 -300 188 -157 104 -402 265 -544 359 l-259 171 79
13 c43 6 99 15 124 18 25 3 86 12 135 20 50 7 106 16 125 19 180 27 249 37
270 40 14 3 45 7 70 10 25 3 56 8 70 11 14 3 45 7 70 10 25 3 52 7 60 10 30 8
116 18 162 18 54 1 85 -21 113 -80 15 -31 20 -34 48 -29 18 3 56 8 85 12 l53
7 -6 51 c-3 28 -10 74 -15 101 -5 28 -12 73 -16 100 -9 71 -11 86 -17 125 -3
19 -9 58 -12 85 -4 28 -8 57 -10 65 -2 8 -7 35 -10 60 -3 25 -10 70 -15 100
-5 30 -12 80 -16 110 -3 30 -8 58 -11 63 -4 7 -37 10 -44 3z"/>
<path d="M41284 12452 c-11 -52 -35 -148 -49 -197 -7 -27 -19 -77 -26 -110 -7
-33 -14 -64 -15 -70 -7 -23 -26 -101 -30 -121 -2 -11 -22 -94 -44 -183 -22
-90 -39 -165 -38 -166 2 -1 39 -10 82 -20 l80 -18 15 22 c9 13 27 36 41 53 42
49 32 51 490 -61 228 -55 377 -91 400 -96 48 -11 618 -149 740 -179 187 -47
220 -71 220 -162 l0 -40 85 -20 84 -20 11 46 c6 25 12 54 14 65 2 11 9 40 16
65 7 25 14 52 15 60 2 8 31 130 66 270 34 140 67 280 74 311 l12 56 -84 20
-84 19 -20 -38 c-37 -73 -78 -85 -194 -58 -27 6 -57 13 -65 15 -8 2 -44 11
-80 20 -36 9 -76 18 -90 21 -14 3 -68 16 -120 29 -89 23 -256 63 -290 70 -8 2
-143 35 -300 73 -157 38 -366 89 -465 112 -98 24 -194 49 -213 57 -39 16 -62
62 -62 122 0 34 -3 39 -27 44 -33 6 -58 12 -107 25 -34 10 -36 9 -42 -16z"/>
<path d="M2290 11913 c-55 -6 -196 -51 -248 -80 -77 -43 -104 -63 -164 -125
-124 -128 -181 -286 -182 -498 0 -173 43 -359 192 -827 l20 -63 -142 -44 c-77
-25 -195 -61 -261 -81 -66 -20 -126 -38 -133 -40 -7 -3 -14 1 -17 8 -2 6 -27
89 -55 182 -28 94 -72 235 -96 315 -77 250 -84 312 -44 395 12 25 40 60 61 77
21 17 39 37 39 44 0 12 -40 144 -46 152 -3 4 -83 -16 -109 -28 -11 -5 -103
-34 -204 -65 -102 -30 -186 -56 -187 -58 -3 -3 8 -37 216 -712 151 -492 206
-667 276 -890 21 -66 39 -125 40 -132 6 -31 26 -83 33 -83 8 0 91 26 132 41
23 9 26 16 26 59 0 53 19 92 55 111 18 10 529 173 573 183 6 1 48 14 95 29
530 166 1001 307 1028 307 34 0 67 -25 104 -78 l16 -24 81 24 c95 27 92 1 26
213 -52 167 -170 546 -195 630 -117 391 -163 510 -242 640 -81 130 -136 196
-223 265 -149 119 -303 169 -465 153z m317 -620 c63 -31 155 -125 195 -198 26
-50 152 -444 144 -452 -3 -3 -150 -50 -328 -105 -178 -55 -342 -105 -364 -112
l-41 -13 -62 199 c-72 231 -76 254 -75 370 1 73 5 95 29 144 15 31 45 74 65
94 47 47 149 97 215 105 28 4 51 8 53 10 9 8 124 -20 169 -42z"/>
<path d="M41325 10413 c-322 -46 -592 -218 -802 -511 -119 -166 -232 -435
-259 -612 -2 -14 -8 -52 -13 -85 -14 -87 -11 -294 5 -378 21 -109 21 -107 43
-177 69 -221 251 -454 455 -585 458 -293 986 -289 1381 10 177 134 319 308
418 515 50 103 102 246 111 302 3 19 8 41 11 49 30 78 40 375 16 499 -72 388
-287 676 -631 846 -100 49 -160 71 -264 98 -161 42 -315 52 -471 29z m175
-598 c217 -44 432 -153 584 -296 256 -239 289 -548 91 -844 -141 -211 -416
-288 -750 -211 -180 42 -411 152 -515 246 -14 12 -36 32 -50 44 -127 110 -211
284 -212 444 -1 95 5 130 37 221 89 247 250 379 495 408 25 3 46 6 48 8 9 8
204 -6 272 -20z"/>
<path d="M3480 9641 c-48 -24 -74 -43 -71 -52 9 -35 2 -100 -13 -123 -15 -24
-79 -58 -401 -211 -55 -26 -188 -91 -295 -143 -107 -52 -244 -118 -305 -147
-318 -152 -435 -209 -486 -234 -100 -52 -145 -63 -183 -47 -18 8 -45 26 -59
42 l-26 28 -43 -20 c-24 -11 -58 -27 -75 -35 -18 -8 -33 -17 -33 -21 0 -4 32
-74 71 -155 39 -81 93 -193 119 -248 26 -55 79 -164 117 -242 l68 -142 77 36
76 35 -1 65 c-2 64 -1 66 37 99 22 19 44 34 50 34 6 0 27 8 46 19 24 12 43 16
60 11 14 -4 160 -47 325 -95 165 -48 361 -105 435 -126 74 -22 142 -42 150
-44 8 -2 71 -20 140 -40 69 -21 139 -41 155 -45 28 -7 16 -14 -150 -95 -99
-49 -182 -89 -185 -90 -6 -1 -115 -54 -412 -198 -109 -53 -215 -101 -237 -107
-49 -13 -84 -1 -122 43 l-28 32 -71 -35 c-40 -19 -74 -38 -76 -42 -2 -4 37
-91 87 -195 50 -103 116 -240 146 -303 30 -63 76 -156 100 -207 l46 -92 78 39
c76 39 78 40 69 68 -11 40 -6 87 14 116 10 15 68 50 153 92 257 125 609 295
848 409 61 29 187 90 280 135 288 139 314 151 338 152 47 2 58 -3 97 -42 l40
-40 75 35 c41 19 75 37 75 40 0 11 -39 93 -301 632 l-79 162 -72 -34 -73 -35
0 -64 c0 -81 -10 -92 -137 -156 -80 -40 -103 -48 -121 -40 -12 6 -148 46 -302
91 -154 44 -318 92 -365 105 -47 14 -95 27 -108 30 -13 2 -42 11 -65 19 -23 8
-91 28 -152 45 -113 33 -123 35 -187 51 -43 11 -49 25 -15 38 12 5 103 48 202
96 99 48 234 113 300 145 66 32 205 99 308 149 262 126 273 128 340 60 15 -16
30 -29 33 -29 4 0 39 15 80 34 l73 35 -43 93 c-24 51 -85 179 -136 283 -51
105 -117 241 -146 303 -30 61 -55 112 -57 111 -1 0 -36 -17 -77 -38z"/>
<path d="M39540 7613 c0 -5 -74 -134 -164 -288 l-164 -279 61 -35 c34 -19 64
-38 65 -43 6 -14 28 -9 48 13 60 66 111 62 244 -21 13 -8 73 -43 205 -120 17
-10 71 -42 122 -71 685 -401 840 -495 830 -500 -7 -4 -136 -41 -287 -83 -151
-42 -297 -83 -325 -91 -50 -14 -255 -72 -645 -180 -113 -32 -241 -68 -286 -81
-44 -13 -87 -24 -96 -24 -17 0 -191 99 -245 139 -51 38 -59 70 -38 153 6 24 1
29 -62 67 -38 23 -72 41 -75 41 -6 0 -24 -29 -68 -105 -9 -16 -72 -123 -139
-237 -66 -113 -124 -213 -127 -221 -4 -11 15 -27 64 -57 l70 -41 50 35 c27 20
60 36 73 36 23 0 87 -34 284 -150 50 -29 104 -60 120 -70 17 -9 96 -56 176
-103 205 -120 191 -112 371 -216 90 -52 170 -100 178 -106 8 -7 35 -23 60 -37
129 -68 363 -213 380 -236 16 -20 19 -35 15 -71 -3 -25 -8 -53 -10 -61 -3 -10
12 -25 48 -44 28 -16 60 -36 70 -44 21 -19 32 -10 69 58 21 38 158 271 189
320 61 100 106 187 100 193 -4 4 -37 25 -73 46 l-65 38 -36 -33 c-65 -60 -102
-57 -231 21 -39 24 -90 54 -112 66 -190 108 -332 195 -326 200 4 3 72 24 152
46 80 22 361 100 626 173 l481 134 124 209 c68 116 136 231 150 256 14 25 53
92 87 148 43 73 57 105 49 111 -7 5 -40 25 -75 46 l-63 36 -32 -31 c-41 -39
-69 -50 -104 -40 -16 5 -134 70 -263 146 -129 76 -248 146 -265 155 -16 9 -60
36 -98 58 -37 23 -70 42 -72 42 -3 0 -23 11 -44 25 -33 20 -134 80 -489 288
-21 12 -84 49 -141 82 -56 33 -112 65 -124 72 -12 7 -34 24 -47 38 -24 26 -29
62 -18 138 2 13 -15 30 -61 58 -62 37 -91 48 -91 32z"/>
<path d="M4754 7230 c-10 -10 -204 -130 -210 -130 -2 0 -41 -24 -86 -53 -46
-29 -109 -68 -140 -87 l-56 -33 34 -54 c19 -29 34 -57 34 -62 0 -20 40 -40 92
-45 236 -25 435 -227 524 -534 56 -190 55 -372 -3 -552 -112 -351 -492 -649
-829 -652 -45 0 -90 2 -100 6 -11 3 -34 8 -53 11 -47 8 -177 63 -192 81 -6 8
-17 14 -23 14 -18 0 -140 120 -175 173 -43 63 -97 181 -112 243 -18 78 -14
175 11 231 29 66 105 135 180 163 58 22 60 24 61 59 3 74 2 131 -2 134 -13 10
-650 164 -654 158 -19 -32 -44 -270 -40 -390 4 -132 9 -172 36 -291 85 -369
343 -740 654 -942 200 -129 409 -191 645 -192 227 0 402 53 599 181 232 151
406 412 475 714 37 162 42 391 12 554 -3 17 -8 44 -11 60 -58 309 -260 725
-525 1080 -110 147 -132 169 -146 155z"/>
</g>
</svg>
